<?xml version="1.0" encoding="UTF-8" standalone="no"?>
<!DOCTYPE svg PUBLIC "-//W3C//DTD SVG 1.1//EN"
 "http://www.w3.org/Graphics/SVG/1.1/DTD/svg11.dtd">
<!-- Generated by graphviz version 11.0.0 (20240519.1550)
 -->
<!-- Title: G Pages: 1 -->
<svg width="476pt" height="332pt"
 viewBox="0.00 0.00 476.00 332.00" xmlns="http://www.w3.org/2000/svg" xmlns:xlink="http://www.w3.org/1999/xlink">
<g id="graph0" class="graph" transform="scale(1 1) rotate(0) translate(4 328)">
<title>G</title>
<polygon fill="none" stroke="none" points="-4,4 -4,-328 472,-328 472,4 -4,4"/>
<!-- AA -->
<g id="node1" class="node">
<title>AA</title>
<ellipse fill="springgreen" stroke="black" stroke-width="3" cx="234" cy="-306" rx="18" ry="18"/>
</g>
<!-- BL -->
<g id="node2" class="node">
<title>BL</title>
<ellipse fill="springgreen" stroke="black" stroke-width="3" cx="99" cy="-234" rx="18" ry="18"/>
</g>
<!-- AA&#45;&gt;BL -->
<g id="edge1" class="edge">
<title>AA&#45;&gt;BL</title>
<path fill="none" stroke="black" stroke-width="3" d="M217.18,-296.28C194.92,-284.74 155.36,-264.22 128.18,-250.13"/>
<polygon fill="black" stroke="black" stroke-width="3" points="130.13,-247.2 119.64,-245.7 126.91,-253.41 130.13,-247.2"/>
</g>
<!-- BM -->
<g id="node3" class="node">
<title>BM</title>
<ellipse fill="springgreen" stroke="black" stroke-width="3" cx="234" cy="-234" rx="18" ry="18"/>
</g>
<!-- AA&#45;&gt;BM -->
<g id="edge2" class="edge">
<title>AA&#45;&gt;BM</title>
<path fill="none" stroke="black" stroke-width="3" d="M234,-286.61C234,-280.69 234,-273.96 234,-267.35"/>
<polygon fill="black" stroke="black" stroke-width="3" points="237.5,-267.57 234,-257.57 230.5,-267.57 237.5,-267.57"/>
</g>
<!-- BN -->
<g id="node4" class="node">
<title>BN</title>
<ellipse fill="springgreen" stroke="black" stroke-width="3" cx="369" cy="-234" rx="18" ry="18"/>
</g>
<!-- AA&#45;&gt;BN -->
<g id="edge3" class="edge">
<title>AA&#45;&gt;BN</title>
<path fill="none" stroke="black" stroke-width="3" d="M250.82,-296.28C273.08,-284.74 312.64,-264.22 339.82,-250.13"/>
<polygon fill="black" stroke="black" stroke-width="3" points="341.09,-253.41 348.36,-245.7 337.87,-247.2 341.09,-253.41"/>
</g>
<!-- CA -->
<g id="node5" class="node">
<title>CA</title>
<ellipse fill="springgreen" stroke="black" stroke-width="3" cx="18" cy="-162" rx="18" ry="18"/>
</g>
<!-- BL&#45;&gt;CA -->
<g id="edge4" class="edge">
<title>BL&#45;&gt;CA</title>
<path fill="none" stroke="black" stroke-width="3" d="M84.89,-220.81C73.35,-210.83 56.74,-196.48 42.96,-184.57"/>
<polygon fill="black" stroke="black" stroke-width="3" points="45.51,-182.15 35.65,-178.26 40.93,-187.44 45.51,-182.15"/>
</g>
<!-- CB -->
<g id="node6" class="node">
<title>CB</title>
<ellipse fill="springgreen" stroke="black" stroke-width="3" cx="72" cy="-162" rx="18" ry="18"/>
</g>
<!-- BL&#45;&gt;CB -->
<g id="edge5" class="edge">
<title>BL&#45;&gt;CB</title>
<path fill="none" stroke="black" stroke-width="3" d="M92.33,-215.7C89.74,-209 86.71,-201.13 83.78,-193.54"/>
<polygon fill="black" stroke="black" stroke-width="3" points="87.1,-192.41 80.23,-184.34 80.56,-194.93 87.1,-192.41"/>
</g>
<!-- CC -->
<g id="node17" class="node">
<title>CC</title>
<ellipse fill="darkorange" stroke="black" stroke-width="3" cx="126" cy="-162" rx="18" ry="18"/>
</g>
<!-- BL&#45;&gt;CC -->
<g id="edge6" class="edge">
<title>BL&#45;&gt;CC</title>
<path fill="none" stroke="black" stroke-width="3" d="M105.67,-215.7C108.26,-209 111.29,-201.13 114.22,-193.54"/>
<polygon fill="black" stroke="black" stroke-width="3" points="117.44,-194.93 117.77,-184.34 110.9,-192.41 117.44,-194.93"/>
</g>
<!-- CL -->
<g id="node7" class="node">
<title>CL</title>
<ellipse fill="springgreen" stroke="black" stroke-width="3" cx="180" cy="-162" rx="18" ry="18"/>
</g>
<!-- BM&#45;&gt;CL -->
<g id="edge7" class="edge">
<title>BM&#45;&gt;CL</title>
<path fill="none" stroke="black" stroke-width="3" d="M222.81,-218.5C216.22,-209.95 207.69,-198.9 199.99,-188.91"/>
<polygon fill="black" stroke="black" stroke-width="3" points="202.83,-186.86 193.95,-181.08 197.28,-191.14 202.83,-186.86"/>
</g>
<!-- CM -->
<g id="node8" class="node">
<title>CM</title>
<ellipse fill="springgreen" stroke="black" stroke-width="3" cx="234" cy="-162" rx="18" ry="18"/>
</g>
<!-- BM&#45;&gt;CM -->
<g id="edge8" class="edge">
<title>BM&#45;&gt;CM</title>
<path fill="none" stroke="black" stroke-width="3" d="M234,-214.61C234,-208.69 234,-201.96 234,-195.35"/>
<polygon fill="black" stroke="black" stroke-width="3" points="237.5,-195.57 234,-185.57 230.5,-195.57 237.5,-195.57"/>
</g>
<!-- CN -->
<g id="node9" class="node">
<title>CN</title>
<ellipse fill="springgreen" stroke="black" stroke-width="3" cx="288" cy="-162" rx="18" ry="18"/>
</g>
<!-- BM&#45;&gt;CN -->
<g id="edge9" class="edge">
<title>BM&#45;&gt;CN</title>
<path fill="none" stroke="black" stroke-width="3" d="M245.19,-218.5C251.78,-209.95 260.31,-198.9 268.01,-188.91"/>
<polygon fill="black" stroke="black" stroke-width="3" points="270.72,-191.14 274.05,-181.08 265.17,-186.86 270.72,-191.14"/>
</g>
<!-- CX -->
<g id="node10" class="node">
<title>CX</title>
<ellipse fill="springgreen" stroke="black" stroke-width="3" cx="342" cy="-162" rx="18" ry="18"/>
</g>
<!-- BN&#45;&gt;CX -->
<g id="edge10" class="edge">
<title>BN&#45;&gt;CX</title>
<path fill="none" stroke="black" stroke-width="3" d="M362.33,-215.7C359.74,-209 356.71,-201.13 353.78,-193.54"/>
<polygon fill="black" stroke="black" stroke-width="3" points="357.1,-192.41 350.23,-184.34 350.56,-194.93 357.1,-192.41"/>
</g>
<!-- CY -->
<g id="node11" class="node">
<title>CY</title>
<ellipse fill="springgreen" stroke="black" stroke-width="3" cx="396" cy="-162" rx="18" ry="18"/>
</g>
<!-- BN&#45;&gt;CY -->
<g id="edge11" class="edge">
<title>BN&#45;&gt;CY</title>
<path fill="none" stroke="black" stroke-width="3" d="M375.67,-215.7C378.26,-209 381.29,-201.13 384.22,-193.54"/>
<polygon fill="black" stroke="black" stroke-width="3" points="387.44,-194.93 387.77,-184.34 380.9,-192.41 387.44,-194.93"/>
</g>
<!-- CZ -->
<g id="node12" class="node">
<title>CZ</title>
<ellipse fill="springgreen" stroke="black" stroke-width="3" cx="450" cy="-162" rx="18" ry="18"/>
</g>
<!-- BN&#45;&gt;CZ -->
<g id="edge12" class="edge">
<title>BN&#45;&gt;CZ</title>
<path fill="none" stroke="black" stroke-width="3" d="M383.11,-220.81C394.65,-210.83 411.26,-196.48 425.04,-184.57"/>
<polygon fill="black" stroke="black" stroke-width="3" points="427.07,-187.44 432.35,-178.26 422.49,-182.15 427.07,-187.44"/>
</g>
<!-- DA -->
<g id="node13" class="node">
<title>DA</title>
<ellipse fill="springgreen" stroke="black" stroke-width="3" cx="18" cy="-90" rx="18" ry="18"/>
</g>
<!-- CA&#45;&gt;DA -->
<g id="edge13" class="edge">
<title>CA&#45;&gt;DA</title>
<path fill="none" stroke="black" stroke-width="3" d="M18,-142.61C18,-136.69 18,-129.96 18,-123.35"/>
<polygon fill="black" stroke="black" stroke-width="3" points="21.5,-123.57 18,-113.57 14.5,-123.57 21.5,-123.57"/>
</g>
<!-- DB -->
<g id="node14" class="node">
<title>DB</title>
<ellipse fill="springgreen" stroke="black" stroke-width="3" cx="72" cy="-90" rx="18" ry="18"/>
</g>
<!-- CB&#45;&gt;DB -->
<g id="edge14" class="edge">
<title>CB&#45;&gt;DB</title>
<path fill="none" stroke="black" stroke-width="3" d="M72,-142.61C72,-136.69 72,-129.96 72,-123.35"/>
<polygon fill="black" stroke="black" stroke-width="3" points="75.5,-123.57 72,-113.57 68.5,-123.57 75.5,-123.57"/>
</g>
<!-- DL -->
<g id="node15" class="node">
<title>DL</title>
<ellipse fill="springgreen" stroke="black" stroke-width="3" cx="180" cy="-90" rx="18" ry="18"/>
</g>
<!-- CL&#45;&gt;DL -->
<g id="edge16" class="edge">
<title>CL&#45;&gt;DL</title>
<path fill="none" stroke="black" stroke-width="3" d="M180,-142.61C180,-136.69 180,-129.96 180,-123.35"/>
<polygon fill="black" stroke="black" stroke-width="3" points="183.5,-123.57 180,-113.57 176.5,-123.57 183.5,-123.57"/>
</g>
<!-- DM -->
<g id="node16" class="node">
<title>DM</title>
<ellipse fill="springgreen" stroke="black" stroke-width="3" cx="234" cy="-90" rx="18" ry="18"/>
</g>
<!-- CM&#45;&gt;DM -->
<g id="edge17" class="edge">
<title>CM&#45;&gt;DM</title>
<path fill="none" stroke="black" stroke-width="3" d="M234,-142.61C234,-136.69 234,-129.96 234,-123.35"/>
<polygon fill="black" stroke="black" stroke-width="3" points="237.5,-123.57 234,-113.57 230.5,-123.57 237.5,-123.57"/>
</g>
<!-- DN -->
<g id="node19" class="node">
<title>DN</title>
<ellipse fill="gray" stroke="black" stroke-width="3" cx="288" cy="-90" rx="18" ry="18"/>
</g>
<!-- CN&#45;&gt;DN -->
<g id="edge18" class="edge">
<title>CN&#45;&gt;DN</title>
<path fill="none" stroke="black" stroke-width="3" d="M288,-142.61C288,-136.69 288,-129.96 288,-123.35"/>
<polygon fill="black" stroke="black" stroke-width="3" points="291.5,-123.57 288,-113.57 284.5,-123.57 291.5,-123.57"/>
</g>
<!-- DX -->
<g id="node20" class="node">
<title>DX</title>
<ellipse fill="gray" stroke="black" stroke-width="3" cx="342" cy="-90" rx="18" ry="18"/>
</g>
<!-- CX&#45;&gt;DX -->
<g id="edge19" class="edge">
<title>CX&#45;&gt;DX</title>
<path fill="none" stroke="black" stroke-width="3" d="M342,-142.61C342,-136.69 342,-129.96 342,-123.35"/>
<polygon fill="black" stroke="black" stroke-width="3" points="345.5,-123.57 342,-113.57 338.5,-123.57 345.5,-123.57"/>
</g>
<!-- DY -->
<g id="node21" class="node">
<title>DY</title>
<ellipse fill="gray" stroke="black" stroke-width="3" cx="396" cy="-90" rx="18" ry="18"/>
</g>
<!-- CY&#45;&gt;DY -->
<g id="edge20" class="edge">
<title>CY&#45;&gt;DY</title>
<path fill="none" stroke="black" stroke-width="3" d="M396,-142.61C396,-136.69 396,-129.96 396,-123.35"/>
<polygon fill="black" stroke="black" stroke-width="3" points="399.5,-123.57 396,-113.57 392.5,-123.57 399.5,-123.57"/>
</g>
<!-- DZ -->
<g id="node22" class="node">
<title>DZ</title>
<ellipse fill="gray" stroke="black" stroke-width="3" cx="450" cy="-90" rx="18" ry="18"/>
</g>
<!-- CZ&#45;&gt;DZ -->
<g id="edge21" class="edge">
<title>CZ&#45;&gt;DZ</title>
<path fill="none" stroke="black" stroke-width="3" d="M450,-142.61C450,-136.69 450,-129.96 450,-123.35"/>
<polygon fill="black" stroke="black" stroke-width="3" points="453.5,-123.57 450,-113.57 446.5,-123.57 453.5,-123.57"/>
</g>
<!-- EA -->
<g id="node23" class="node">
<title>EA</title>
<ellipse fill="gray" stroke="black" stroke-width="3" cx="18" cy="-18" rx="18" ry="18"/>
</g>
<!-- DA&#45;&gt;EA -->
<g id="edge22" class="edge">
<title>DA&#45;&gt;EA</title>
<path fill="none" stroke="black" stroke-width="3" d="M18,-70.61C18,-64.69 18,-57.96 18,-51.35"/>
<polygon fill="black" stroke="black" stroke-width="3" points="21.5,-51.57 18,-41.57 14.5,-51.57 21.5,-51.57"/>
</g>
<!-- EB -->
<g id="node24" class="node">
<title>EB</title>
<ellipse fill="gray" stroke="black" stroke-width="3" cx="72" cy="-18" rx="18" ry="18"/>
</g>
<!-- DB&#45;&gt;EB -->
<g id="edge23" class="edge">
<title>DB&#45;&gt;EB</title>
<path fill="none" stroke="black" stroke-width="3" d="M72,-70.61C72,-64.69 72,-57.96 72,-51.35"/>
<polygon fill="black" stroke="black" stroke-width="3" points="75.5,-51.57 72,-41.57 68.5,-51.57 75.5,-51.57"/>
</g>
<!-- EL -->
<g id="node26" class="node">
<title>EL</title>
<ellipse fill="gray" stroke="black" stroke-width="3" cx="180" cy="-18" rx="18" ry="18"/>
</g>
<!-- DL&#45;&gt;EL -->
<g id="edge25" class="edge">
<title>DL&#45;&gt;EL</title>
<path fill="none" stroke="black" stroke-width="3" d="M180,-70.61C180,-64.69 180,-57.96 180,-51.35"/>
<polygon fill="black" stroke="black" stroke-width="3" points="183.5,-51.57 180,-41.57 176.5,-51.57 183.5,-51.57"/>
</g>
<!-- EM -->
<g id="node27" class="node">
<title>EM</title>
<ellipse fill="gray" stroke="black" stroke-width="3" cx="234" cy="-18" rx="18" ry="18"/>
</g>
<!-- DM&#45;&gt;EM -->
<g id="edge26" class="edge">
<title>DM&#45;&gt;EM</title>
<path fill="none" stroke="black" stroke-width="3" d="M234,-70.61C234,-64.69 234,-57.96 234,-51.35"/>
<polygon fill="black" stroke="black" stroke-width="3" points="237.5,-51.57 234,-41.57 230.5,-51.57 237.5,-51.57"/>
</g>
<!-- DC -->
<g id="node18" class="node">
<title>DC</title>
<ellipse fill="crimson" stroke="black" stroke-width="3" cx="126" cy="-90" rx="18" ry="18"/>
</g>
<!-- CC&#45;&gt;DC -->
<g id="edge15" class="edge">
<title>CC&#45;&gt;DC</title>
<path fill="none" stroke="black" stroke-width="3" d="M126,-142.61C126,-136.69 126,-129.96 126,-123.35"/>
<polygon fill="black" stroke="black" stroke-width="3" points="129.5,-123.57 126,-113.57 122.5,-123.57 129.5,-123.57"/>
</g>
<!-- EC -->
<g id="node25" class="node">
<title>EC</title>
<ellipse fill="gray" stroke="black" stroke-width="3" cx="126" cy="-18" rx="18" ry="18"/>
</g>
<!-- DC&#45;&gt;EC -->
<g id="edge24" class="edge">
<title>DC&#45;&gt;EC</title>
<path fill="none" stroke="black" stroke-width="3" d="M126,-70.61C126,-64.69 126,-57.96 126,-51.35"/>
<polygon fill="black" stroke="black" stroke-width="3" points="129.5,-51.57 126,-41.57 122.5,-51.57 129.5,-51.57"/>
</g>
<!-- EN -->
<g id="node28" class="node">
<title>EN</title>
<ellipse fill="gray" stroke="black" stroke-width="3" cx="288" cy="-18" rx="18" ry="18"/>
</g>
<!-- DN&#45;&gt;EN -->
<g id="edge27" class="edge">
<title>DN&#45;&gt;EN</title>
<path fill="none" stroke="black" stroke-width="3" d="M288,-70.61C288,-64.69 288,-57.96 288,-51.35"/>
<polygon fill="black" stroke="black" stroke-width="3" points="291.5,-51.57 288,-41.57 284.5,-51.57 291.5,-51.57"/>
</g>
<!-- EX -->
<g id="node29" class="node">
<title>EX</title>
<ellipse fill="gray" stroke="black" stroke-width="3" cx="342" cy="-18" rx="18" ry="18"/>
</g>
<!-- DX&#45;&gt;EX -->
<g id="edge28" class="edge">
<title>DX&#45;&gt;EX</title>
<path fill="none" stroke="black" stroke-width="3" d="M342,-70.61C342,-64.69 342,-57.96 342,-51.35"/>
<polygon fill="black" stroke="black" stroke-width="3" points="345.5,-51.57 342,-41.57 338.5,-51.57 345.5,-51.57"/>
</g>
<!-- EY -->
<g id="node30" class="node">
<title>EY</title>
<ellipse fill="gray" stroke="black" stroke-width="3" cx="396" cy="-18" rx="18" ry="18"/>
</g>
<!-- DY&#45;&gt;EY -->
<g id="edge29" class="edge">
<title>DY&#45;&gt;EY</title>
<path fill="none" stroke="black" stroke-width="3" d="M396,-70.61C396,-64.69 396,-57.96 396,-51.35"/>
<polygon fill="black" stroke="black" stroke-width="3" points="399.5,-51.57 396,-41.57 392.5,-51.57 399.5,-51.57"/>
</g>
<!-- EZ -->
<g id="node31" class="node">
<title>EZ</title>
<ellipse fill="gray" stroke="black" stroke-width="3" cx="450" cy="-18" rx="18" ry="18"/>
</g>
<!-- DZ&#45;&gt;EZ -->
<g id="edge30" class="edge">
<title>DZ&#45;&gt;EZ</title>
<path fill="none" stroke="black" stroke-width="3" d="M450,-70.61C450,-64.69 450,-57.96 450,-51.35"/>
<polygon fill="black" stroke="black" stroke-width="3" points="453.5,-51.57 450,-41.57 446.5,-51.57 453.5,-51.57"/>
</g>
</g>
</svg>
